<?xml version="1.0" encoding="UTF-8" ?>
<!DOCTYPE svg PUBLIC "-//W3C//DTD SVG 1.1//EN" "http://www.w3.org/Graphics/SVG/1.1/DTD/svg11.dtd">
<svg width="32pt" height="32pt" viewBox="0 0 32 32" version="1.1" xmlns="http://www.w3.org/2000/svg">
<path fill="#dc002f" d=" M 0.00 0.00 L 32.00 0.00 L 32.00 32.00 L 0.00 32.00 L 0.00 0.00 Z" />
<path fill="#fefcfc" d=" M 12.22 8.28 C 17.24 5.68 24.99 8.84 24.67 15.07 C 25.24 20.34 19.58 26.06 14.48 22.59 C 13.69 24.78 13.71 28.05 10.78 28.47 C 10.92 26.42 11.25 24.40 11.62 22.38 C 12.24 19.54 12.33 16.62 12.86 13.76 C 13.19 12.28 17.09 11.58 16.24 13.80 C 16.74 16.40 13.98 20.00 16.98 21.56 C 20.96 21.21 22.01 16.21 21.27 12.98 C 19.96 8.69 13.46 8.70 11.07 12.01 C 9.10 14.41 10.40 17.65 10.74 20.38 C 10.42 20.34 9.77 20.26 9.45 20.22 C 5.18 16.99 7.68 9.95 12.22 8.28 Z" />
<path fill="#ca2026" d=" M 11.07 12.01 C 13.46 8.70 19.96 8.69 21.27 12.98 C 22.01 16.21 20.96 21.21 16.98 21.56 C 13.98 20.00 16.74 16.40 16.24 13.80 C 17.09 11.58 13.19 12.28 12.86 13.76 C 12.33 16.62 12.24 19.54 11.62 22.38 C 10.88 21.67 10.16 20.95 9.45 20.22 C 9.77 20.26 10.42 20.34 10.74 20.38 C 10.40 17.65 9.10 14.41 11.07 12.01 Z" />
</svg>
