<?xml version="1.0" encoding="utf-8"?>
<!-- Generated by IcoMoon.io -->
<!DOCTYPE svg PUBLIC "-//W3C//DTD SVG 1.1//EN" "http://www.w3.org/Graphics/SVG/1.1/DTD/svg11.dtd">
<svg version="1.1" xmlns="http://www.w3.org/2000/svg" xmlns:xlink="http://www.w3.org/1999/xlink" width="33" height="32" viewBox="0 0 33 32">
<path fill="rgb(255, 255, 255)" d="M0 0h2.721c-0.799 0.187-1.556 0.617-2.054 1.28-0.278 0.36-0.491 0.763-0.667 1.182v-2.462z"></path>
<path fill="rgb(81, 117, 51)" d="M2.721 0h27.342c0.839 0.259 1.609 0.754 2.115 1.48-0.097-0.008-0.194-0.017-0.291-0.025-0.588-0.866-1.644-1.293-2.668-1.284-8.013 0.008-16.028 0.003-24.041 0.004-0.88 0.013-1.777-0.085-2.645 0.108-0.745 0.166-1.325 0.689-1.883 1.176 0.004-0.045 0.012-0.134 0.016-0.179 0.498-0.663 1.255-1.093 2.054-1.28z"></path>
<path fill="rgb(255, 255, 255)" d="M30.063 0h2.734v2.922l-0.046-0.146c-0.141-0.451-0.316-0.896-0.572-1.296-0.506-0.726-1.276-1.222-2.115-1.48z"></path>
<path fill="rgb(126, 182, 73)" d="M2.533 0.283c0.868-0.193 1.765-0.094 2.645-0.108 8.013-0.001 16.028 0.004 24.041-0.004 1.024-0.009 2.079 0.418 2.668 1.284 0.089 0.258 0.163 0.522 0.239 0.783-10.504 0.042-21.010 0.009-31.515 0.017 0.015-0.266 0.025-0.531 0.040-0.797 0.558-0.487 1.138-1.010 1.883-1.176z"></path>
<path fill="rgb(116, 176, 74)" d="M0 2.462c0.175-0.418 0.389-0.822 0.667-1.182-0.004 0.045-0.012 0.134-0.016 0.179-0.015 0.266-0.025 0.531-0.040 0.797 10.506-0.008 21.011 0.025 31.515-0.017-0.076-0.262-0.15-0.526-0.239-0.783 0.097 0.008 0.194 0.017 0.291 0.025 0.256 0.4 0.432 0.844 0.572 1.296-0.021 0.372-0.058 0.742-0.074 1.115-0.973 0.122-1.955 0.106-2.933 0.092-9.915-0.001-19.828-0.001-29.743 0v-1.522z"></path>
<path fill="rgb(123, 156, 110)" d="M32.75 2.776l0.046 0.146v5.962l-0.019-0.134c-0.008-0.061-0.024-0.181-0.032-0.242-0.077-0.516-0.074-1.040-0.066-1.56 0.003-0.493-0.003-0.985-0.008-1.478-0.005-0.526-0.017-1.053 0.004-1.579 0.016-0.373 0.053-0.744 0.074-1.115z"></path>
<path fill="rgb(107, 172, 74)" d="M29.743 3.983c0.979 0.015 1.96 0.031 2.933-0.092-0.021 0.526-0.009 1.053-0.004 1.579-0.708 0.089-1.421 0.129-2.132 0.116-2.435-0.033-4.872 0.023-7.307-0.032-0.455-0.020-0.9 0.101-1.316 0.28-1.785-0.669-3.675-1.085-5.585-1.105-1.909 0.021-3.8 0.438-5.585 1.105-0.497-0.23-1.042-0.313-1.587-0.279-3.053 0.086-6.111-0.070-9.161 0.081v-1.653c9.915-0.001 19.828-0.001 29.743 0z"></path>
<path fill="rgb(159, 162, 160)" d="M10.747 5.834c1.785-0.667 3.675-1.083 5.585-1.105 1.909 0.020 3.8 0.436 5.585 1.105 0.839 0.398 1.654 0.85 2.443 1.34 0.428 0.308 0.786 0.696 1.142 1.082-0.866-0.615-1.709-1.275-2.664-1.751-4.070-2.094-9.149-2.061-13.188 0.093-0.943 0.491-1.773 1.162-2.626 1.787 0.353-0.394 0.712-0.789 1.138-1.107 0.833-0.53 1.69-1.025 2.585-1.443z"></path>
<path fill="rgb(255, 255, 255)" d="M9.65 6.598c4.039-2.154 9.118-2.187 13.188-0.093 0.955 0.477 1.798 1.137 2.664 1.751 0.266 0.256 0.534 0.51 0.79 0.774 0.41 0.513 0.826 1.022 1.166 1.585 0.551 0.948 0.953 1.986 1.142 3.069 0.413 2.111-0.096 4.33-1.179 6.166-0.442 0.726-1.017 1.356-1.551 2.014-0.645 0.518-1.259 1.078-1.964 1.515-3.868 2.479-8.979 2.844-13.186 1.022-1.506 1-3.37 1.644-5.184 1.287-0.598-0.106-1.176-0.297-1.735-0.528-0.028-0.028-0.085-0.084-0.113-0.112 0.787-0.041 1.522-0.43 2.036-1.021 0.547-0.612 0.89-1.368 1.168-2.131-0.151-0.15-0.304-0.299-0.45-0.453-1.591-1.747-2.545-4.070-2.548-6.44 0.009-0.447 0.102-0.886 0.177-1.325 0.169-1.013 0.558-1.97 1.021-2.883 0.38-0.621 0.827-1.198 1.283-1.766 0.211-0.22 0.432-0.432 0.651-0.645 0.854-0.625 1.684-1.296 2.626-1.787z"></path>
<path fill="rgb(98, 168, 75)" d="M30.539 5.586c0.712 0.013 1.425-0.027 2.132-0.116 0.005 0.493 0.011 0.985 0.008 1.478-0.608 0.181-1.241 0.262-1.876 0.24-1.194-0.029-2.389-0.017-3.584-0.013-0.953 0.009-1.908-0.073-2.86-0.001-0.789-0.49-1.604-0.941-2.443-1.34 0.416-0.179 0.86-0.3 1.316-0.28 2.435 0.054 4.872-0.001 7.307 0.032z"></path>
<path fill="rgb(98, 168, 75)" d="M0 5.636c3.050-0.151 6.108 0.005 9.161-0.081 0.544-0.035 1.090 0.049 1.587 0.279-0.895 0.418-1.753 0.914-2.585 1.443-0.937-0.215-1.9-0.097-2.851-0.102-1.77-0.008-3.541 0-5.311-0.005v-1.534z"></path>
<path fill="rgb(88, 163, 75)" d="M30.804 7.189c0.635 0.021 1.268-0.060 1.876-0.24-0.008 0.521-0.011 1.044 0.066 1.56-1.3 0.23-2.622 0.093-3.933 0.127-0.928 0.023-1.856-0.005-2.78-0.086 0.085 0.161 0.169 0.323 0.259 0.481-0.256-0.264-0.524-0.518-0.79-0.774-0.356-0.386-0.714-0.774-1.142-1.082 0.952-0.072 1.907 0.011 2.86 0.001 1.195-0.004 2.39-0.016 3.584 0.013z"></path>
<path fill="rgb(88, 163, 75)" d="M5.311 7.175c0.951 0.005 1.913-0.113 2.851 0.102-0.426 0.319-0.785 0.713-1.138 1.107-0.219 0.214-0.439 0.425-0.651 0.645 0.089-0.158 0.173-0.32 0.256-0.481-2.205 0.173-4.42 0.050-6.63 0.082v-1.462c1.77 0.005 3.541-0.003 5.311 0.005z"></path>
<path fill="rgb(77, 159, 75)" d="M0 8.632c2.209-0.032 4.424 0.090 6.63-0.082-0.084 0.161-0.167 0.323-0.256 0.481-0.455 0.568-0.903 1.145-1.283 1.766 0.033-0.129 0.065-0.258 0.094-0.386-1.461 0.101-2.932 0.155-4.39-0.017-0.28-0.386-0.551-0.779-0.795-1.19v-0.571z"></path>
<path fill="rgb(77, 159, 75)" d="M26.033 8.55c0.924 0.081 1.852 0.109 2.78 0.086 1.311-0.035 2.633 0.102 3.933-0.127 0.008 0.061 0.024 0.181 0.032 0.242-0.023 0.058-0.068 0.178-0.090 0.236-0.333 0.523-0.672 1.044-1.037 1.544-1.396 0.009-2.816-0.211-4.193 0.085-0.34-0.563-0.756-1.073-1.166-1.585-0.090-0.158-0.174-0.32-0.259-0.481z"></path>
<path fill="rgb(75, 140, 97)" d="M32.778 8.75l0.019 0.134v14.891l-0.040 0.158-0.017-0.139c-0.159-1.13-0.044-2.273-0.066-3.41-0.001-0.686-0.008-1.374-0.007-2.061 0.038-3.112-0.049-6.226 0.021-9.337 0.023-0.058 0.068-0.178 0.090-0.236z"></path>
<path fill="rgb(0, 133, 52)" d="M31.651 10.531c0.365-0.501 0.704-1.021 1.037-1.544-0.070 3.111 0.017 6.225-0.021 9.337-1.365 0.009-2.731-0.027-4.096 0.017-0.309 0.552-0.616 1.138-1.15 1.51 1.084-1.836 1.592-4.055 1.179-6.166 0.053-0.514 0.487-0.814 0.879-1.077 0.838-0.559 1.572-1.268 2.172-2.077z"></path>
<path fill="rgb(0, 134, 52)" d="M0 9.203c0.244 0.41 0.515 0.803 0.795 1.19 0.556 0.748 1.2 1.441 1.961 1.985 0.487 0.373 1.135 0.656 1.313 1.301-0.074 0.44-0.167 0.878-0.177 1.325 0.003 2.37 0.957 4.692 2.548 6.44-0.933-0.333-1.171-1.397-1.795-2.062-0.226-0.262-0.603-0.243-0.917-0.266-1.243-0.012-2.487-0.021-3.728 0.064v-9.977z"></path>
<path fill="rgb(64, 155, 76)" d="M0.795 10.393c1.458 0.173 2.929 0.118 4.39 0.017-0.029 0.129-0.061 0.258-0.094 0.386-0.463 0.912-0.852 1.87-1.021 2.883-0.178-0.645-0.826-0.928-1.313-1.301-0.761-0.544-1.405-1.238-1.961-1.985z"></path>
<path fill="rgb(64, 155, 76)" d="M27.458 10.616c1.377-0.296 2.798-0.076 4.193-0.085-0.6 0.809-1.334 1.518-2.172 2.077-0.392 0.263-0.826 0.563-0.879 1.077-0.189-1.082-0.591-2.12-1.142-3.069z"></path>
<path fill="rgb(101, 169, 74)" d="M8.088 10.827c0.834-0.154 1.697-0.031 2.468 0.317-0.094 0.281-0.19 0.563-0.287 0.844-0.607-0.258-1.264-0.382-1.923-0.325 0.291-0.076 0.584-0.137 0.876-0.202 0.056-0.186 0.112-0.372 0.167-0.556-0.433-0.039-0.867-0.080-1.303-0.078z"></path>
<path fill="rgb(31, 151, 75)" d="M22.939 11.079c0.681-0.335 1.447-0.335 2.188-0.267-0.089 0.219-0.177 0.437-0.264 0.656-0.285 0.057-0.571 0.114-0.855 0.183-0.277 0.068-0.543 0.178-0.806 0.289-0.088-0.288-0.175-0.575-0.263-0.862z"></path>
<path fill="rgb(26, 152, 75)" d="M7.533 10.976c0.183-0.052 0.366-0.109 0.555-0.149 0.436-0.001 0.87 0.040 1.303 0.078-0.056 0.185-0.112 0.37-0.167 0.556-0.292 0.065-0.586 0.126-0.876 0.202-0.271 0.073-0.53 0.181-0.793 0.276 0.007-0.321-0.008-0.643-0.021-0.964z"></path>
<path fill="rgb(132, 186, 72)" d="M12.667 10.9c0.386 0 0.773 0.004 1.159 0.019-0.163 0.037-0.325 0.074-0.489 0.112 0.053 0.34 0.105 0.678 0.158 1.018-0.064 1.299-0.121 2.598-0.198 3.896-0.325-0.044-0.651-0.088-0.976-0.131 0.123-1.637 0.226-3.276 0.345-4.913z"></path>
<path fill="rgb(100, 176, 75)" d="M13.826 10.918c0.045-0.009 0.134-0.029 0.179-0.039 0.113 0.336 0.259 0.665 0.323 1.016-0.044 0.663-0.173 1.316-0.262 1.973-0.248-0.587-0.396-1.21-0.571-1.82-0.053-0.34-0.105-0.678-0.158-1.018 0.163-0.037 0.325-0.074 0.489-0.112z"></path>
<path fill="rgb(121, 179, 73)" d="M18.431 11.061c0.421-0.292 0.965-0.125 1.442-0.155 0.118 1.672 0.203 3.346 0.317 5.019-0.339-0.037-0.677-0.073-1.016-0.11-0.122-1.26-0.066-2.532-0.23-3.787-0.041-0.316-0.093-0.631-0.143-0.945-0.123-0.007-0.247-0.013-0.37-0.021z"></path>
<path fill="rgb(99, 168, 74)" d="M25.127 10.812c0.349 0.090 0.692 0.2 1.030 0.328-0.090 0.28-0.181 0.562-0.268 0.843-0.599-0.235-1.236-0.37-1.881-0.332 0.284-0.069 0.57-0.126 0.855-0.183 0.088-0.219 0.175-0.437 0.264-0.656z"></path>
<path fill="rgb(86, 173, 76)" d="M6.793 11.406c0.246-0.142 0.491-0.289 0.74-0.43 0.013 0.321 0.028 0.643 0.021 0.964-0.135 0.343-0.398 0.664-0.34 1.056 0.011 0.357 0.276 0.625 0.487 0.887-0.096 0.347-0.191 0.692-0.288 1.038-0.186-0.131-0.374-0.262-0.54-0.417 0.054-1.004 0.088-2.013-0.070-3.010l-0.009-0.088z"></path>
<path fill="rgb(82, 160, 74)" d="M18.431 11.061c0.123 0.008 0.247 0.015 0.37 0.021 0.050 0.315 0.102 0.629 0.143 0.945-0.356 1.415-0.902 2.775-1.377 4.152-0.251-0.179-0.502-0.357-0.753-0.536 0.475-1.55 1.166-3.026 1.616-4.582z"></path>
<path fill="rgb(93, 175, 75)" d="M22.275 11.521c0.222-0.147 0.441-0.297 0.664-0.442 0.088 0.287 0.175 0.574 0.263 0.862-0.177 0.288-0.406 0.583-0.396 0.939 0.003 0.343 0.228 0.617 0.356 0.92 0.004 0.374-0.033 0.746-0.052 1.121-0.283-0.146-0.571-0.303-0.779-0.547 0.131-0.916 0.19-1.854-0.038-2.759l-0.017-0.093z"></path>
<path fill="rgb(126, 185, 73)" d="M6.873 14.504c-0.937-0.702-0.98-2.269-0.070-3.010 0.158 0.997 0.125 2.006 0.070 3.010z"></path>
<path fill="rgb(128, 185, 73)" d="M22.331 14.373c-0.758-0.712-0.79-2.034-0.038-2.759 0.228 0.906 0.17 1.843 0.038 2.759z"></path>
<path fill="rgb(66, 169, 77)" d="M14.067 13.869c0.089-0.657 0.218-1.311 0.262-1.973 0.384 0.972 0.741 1.957 1.060 2.952-0.088 0.532-0.297 1.034-0.54 1.514-0.263-0.829-0.611-1.637-0.781-2.492z"></path>
<path fill="rgb(14, 147, 75)" d="M23.11 14.921c0.019-0.374 0.056-0.746 0.052-1.121 0.71 0.417 1.488 0.698 2.221 1.070-0.066 0.386-0.134 0.773-0.208 1.159-0.59-0.544-1.39-0.71-2.065-1.109z"></path>
<path fill="rgb(24, 149, 76)" d="M7.413 14.921c0.097-0.347 0.193-0.692 0.288-1.038 0.455 0.242 0.916 0.479 1.411 0.629l0.007 0.080c0.016 0.223 0.031 0.445 0.048 0.668 0.133 0.044 0.267 0.086 0.402 0.129 0.021 0.235 0.041 0.471 0.074 0.706-0.633-0.584-1.47-0.817-2.231-1.174z"></path>
<path fill="rgb(89, 164, 74)" d="M9.119 14.591c0.483 0.12 0.879 0.43 1.245 0.753-0.032 0.056-0.097 0.17-0.129 0.226-0.224-0.053-0.446-0.114-0.667-0.182-0.135-0.043-0.27-0.085-0.402-0.129-0.017-0.223-0.032-0.445-0.048-0.668z"></path>
<path fill="rgb(0, 134, 51)" d="M14.847 16.361c0.243-0.479 0.453-0.981 0.54-1.514 0.3 0.892 0.587 1.79 0.825 2.702 0.193-0.639 0.384-1.277 0.603-1.907 0.251 0.179 0.502 0.357 0.753 0.536-0.353 0.923-0.68 1.854-1.017 2.782-0.271 0.003-0.542 0.003-0.813 0-0.291-0.868-0.59-1.735-0.891-2.6z"></path>
<path fill="rgb(62, 157, 42)" d="M25.384 14.87c0.215 0.166 0.428 0.336 0.641 0.503l-0.015 0.084c-0.203 0.887-0.206 1.808 0.004 2.693l0.016 0.089c-0.222 0.179-0.441 0.36-0.669 0.53-0.073-0.328-0.151-0.655-0.199-0.987 0.084-0.307 0.267-0.591 0.259-0.918 0.003-0.297-0.137-0.567-0.246-0.835 0.074-0.386 0.142-0.773 0.208-1.159z"></path>
<path fill="rgb(66, 158, 43)" d="M9.569 15.388c0.22 0.068 0.442 0.129 0.667 0.182-0.072 0.891 0.011 1.783 0.11 2.669l0.009 0.086c-0.208 0.15-0.416 0.305-0.624 0.455-0.050-0.348-0.104-0.696-0.129-1.046 0.052-0.251 0.165-0.486 0.197-0.741 0.031-0.311-0.101-0.6-0.155-0.899-0.033-0.235-0.053-0.471-0.074-0.706z"></path>
<path fill="rgb(92, 168, 36)" d="M10.236 15.57c0.032-0.056 0.097-0.17 0.129-0.226 0.668 0.803 0.704 2.114-0.019 2.895-0.1-0.886-0.182-1.778-0.11-2.669z"></path>
<path fill="rgb(91, 168, 37)" d="M26.010 15.457c0.656 0.728 0.627 1.955 0.004 2.693-0.21-0.884-0.207-1.806-0.004-2.693z"></path>
<path fill="rgb(112, 178, 31)" d="M12.322 15.813c0.325 0.044 0.651 0.088 0.976 0.131-0.076 1.025-0.121 2.053-0.195 3.078-0.331 0.001-0.663 0-0.993-0.001 0.052-1.072 0.15-2.139 0.212-3.208z"></path>
<path fill="rgb(92, 169, 37)" d="M19.175 15.814c0.339 0.037 0.677 0.073 1.016 0.11 0.058 1.034 0.129 2.067 0.187 3.102-0.348-0.001-0.697-0.003-1.045-0.012-0.028-1.069-0.13-2.132-0.158-3.2z"></path>
<path fill="rgb(94, 172, 35)" d="M6.243 17.753c0.277 0.127 0.558 0.252 0.838 0.374-0.011 0.304-0.024 0.609-0.038 0.914-0.36-0.105-0.713-0.235-1.058-0.381 0.078-0.304 0.169-0.605 0.259-0.907z"></path>
<path fill="rgb(0, 142, 48)" d="M7.081 18.127c0.85 0.227 1.824 0.21 2.522-0.393 0.025 0.351 0.078 0.698 0.129 1.046-0.836 0.401-1.791 0.511-2.689 0.26 0.015-0.304 0.028-0.609 0.038-0.914z"></path>
<path fill="rgb(89, 171, 37)" d="M21.845 17.775c0.312 0.125 0.624 0.252 0.936 0.377-0.084 0.283-0.13 0.576-0.171 0.868-0.358-0.090-0.701-0.227-1.033-0.385 0.092-0.287 0.181-0.574 0.268-0.86z"></path>
<path fill="rgb(0, 141, 49)" d="M22.781 18.152c0.806 0.189 1.706 0.167 2.381-0.37 0.048 0.332 0.126 0.659 0.199 0.987-0.852 0.409-1.84 0.546-2.751 0.252 0.041-0.292 0.088-0.586 0.171-0.868z"></path>
<path fill="rgb(0, 146, 52)" d="M28.57 18.341c1.365-0.044 2.731-0.008 4.096-0.017-0.001 0.686 0.005 1.374 0.007 2.061-1.014-0.159-2.042-0.036-3.063-0.069-0.609-0.007-1.226-0.058-1.83 0.048-0.497 0.086-0.758 0.567-1.076 0.904-0.24 0.308-0.572 0.522-0.911 0.709l0.076-0.112c0.534-0.659 1.109-1.288 1.551-2.014 0.534-0.372 0.84-0.957 1.15-1.51z"></path>
<path fill="rgb(0, 155, 49)" d="M0 19.18c1.242-0.085 2.486-0.076 3.728-0.064 0.315 0.023 0.692 0.004 0.917 0.266 0.624 0.665 0.862 1.729 1.795 2.062 0.146 0.154 0.299 0.303 0.45 0.453-0.279 0.764-0.621 1.519-1.168 2.131-1.897-0.256-3.816-0.065-5.723-0.122v-4.726z"></path>
<path fill="rgb(0, 156, 49)" d="M29.61 20.315c1.021 0.033 2.049-0.090 3.063 0.069 0.023 1.137-0.093 2.28 0.066 3.41-2.998 0.016-5.998 0.048-8.996-0.023 0.73-0.536 1.524-1.040 2.050-1.795 0.339-0.187 0.671-0.401 0.911-0.709 0.317-0.337 0.579-0.818 1.076-0.904 0.604-0.106 1.22-0.054 1.83-0.048z"></path>
<path fill="rgb(41, 109, 46)" d="M23.906 23.38c0.705-0.437 1.319-0.997 1.964-1.515l-0.076 0.112c-0.526 0.756-1.32 1.259-2.050 1.795-0.698 0.365-1.388 0.754-2.113 1.068-3.284 1.232-7.013 1.326-10.305 0.077-0.532-0.259-1.074 0.023-1.538 0.284-1.632 0.899-3.661 1.134-5.409 0.442-0.232-0.108-0.401-0.305-0.579-0.482 0.559 0.231 1.138 0.422 1.735 0.528 1.814 0.357 3.678-0.287 5.184-1.287 4.208 1.822 9.319 1.457 13.186-1.022z"></path>
<path fill="rgb(33, 162, 45)" d="M21.631 24.839c0.725-0.313 1.414-0.702 2.113-1.068 2.998 0.070 5.998 0.038 8.996 0.023l0.017 0.139c-0.044 0.297-0.076 0.598-0.085 0.899-3.681 0.025-7.361 0.005-11.041 0.007z"></path>
<path fill="rgb(33, 162, 45)" d="M0 23.906c1.907 0.057 3.825-0.134 5.723 0.122-0.514 0.591-1.248 0.98-2.036 1.021-1.226-0.13-2.46-0.138-3.687-0.025v-1.118z"></path>
<path fill="rgb(111, 153, 98)" d="M32.757 23.934l0.040-0.158v4.892l-0.040 0.146-0.013-0.143c-0.101-0.787-0.092-1.58-0.074-2.371 0.004-0.489-0.008-0.977 0.003-1.466 0.009-0.301 0.041-0.602 0.085-0.899z"></path>
<path fill="rgb(62, 165, 43)" d="M9.789 25.2c0.463-0.262 1.005-0.543 1.538-0.284 3.292 1.249 7.021 1.155 10.305-0.077 3.679-0.001 7.36 0.019 11.041-0.007-0.011 0.489 0.001 0.977-0.003 1.466-10.889 0.024-21.78 0.009-32.669 0.008v-1.283c1.227-0.113 2.462-0.105 3.687 0.025 0.028 0.028 0.085 0.084 0.113 0.112 0.178 0.177 0.347 0.374 0.579 0.482 1.749 0.692 3.778 0.457 5.409-0.442z"></path>
<path fill="rgb(85, 170, 39)" d="M0 26.306c10.889 0.001 21.78 0.016 32.669-0.008-0.017 0.791-0.027 1.584 0.074 2.371-0.421-0.065-0.843-0.125-1.268-0.141-9.43 0.009-18.86 0-28.289 0.004-1.064-0.012-2.127-0.027-3.187 0.073v-2.3z"></path>
<path fill="rgb(106, 176, 35)" d="M0 28.606c1.060-0.1 2.123-0.085 3.187-0.073 9.429-0.004 18.859 0.005 28.289-0.004 0.425 0.016 0.847 0.076 1.268 0.141l0.013 0.143c-0.070 0.266-0.145 0.53-0.226 0.791-0.105 0.183-0.218 0.36-0.339 0.532-7.278-0.004-14.557 0-21.836-0.001-3.304 0.017-6.61-0.033-9.913 0.024-0.085-0.094-0.167-0.187-0.25-0.283-0.072-0.204-0.137-0.413-0.194-0.621v-0.649z"></path>
<path fill="rgb(208, 207, 208)" d="M32.757 28.813l0.040-0.146v1.422c-0.361 0.737-0.891 1.388-1.52 1.911h-0.509c0.437-0.319 0.896-0.628 1.224-1.066 0.292-0.388 0.4-0.872 0.539-1.329 0.081-0.262 0.155-0.526 0.226-0.791z"></path>
<path fill="rgb(245, 245, 245)" d="M0 29.255c0.057 0.208 0.122 0.417 0.194 0.621 0.195 0.935 0.883 1.632 1.665 2.123h-1.859v-2.745z"></path>
<path fill="rgb(121, 118, 125)" d="M32.193 30.137c0.121-0.173 0.234-0.349 0.339-0.532-0.139 0.457-0.247 0.941-0.539 1.329-0.328 0.438-0.787 0.748-1.224 1.066h-28.909c-0.782-0.491-1.47-1.188-1.665-2.123 0.082 0.096 0.165 0.189 0.25 0.283 0.454 0.501 0.921 1.032 1.562 1.297 1 0.43 2.115 0.303 3.173 0.317 7.479-0.003 14.96-0.004 22.44 0.001 1.014-0.012 2.082 0.097 3.039-0.316 0.639-0.263 1.145-0.764 1.535-1.323z"></path>
<path fill="rgb(121, 181, 30)" d="M0.444 30.16c3.304-0.057 6.61-0.007 9.913-0.024 7.279 0.001 14.558-0.003 21.836 0.001-0.39 0.559-0.896 1.060-1.535 1.323-0.957 0.413-2.025 0.304-3.039 0.316-7.479-0.005-14.96-0.004-22.44-0.001-1.058-0.015-2.174 0.113-3.173-0.317-0.64-0.266-1.107-0.797-1.562-1.297z"></path>
<path fill="rgb(252, 252, 252)" d="M31.276 32c0.629-0.523 1.159-1.174 1.52-1.911v1.911h-1.52z"></path>
</svg>
