<svg xmlns="http://www.w3.org/2000/svg" width="32" height="32"><path fill="#2C4762" d="M0 0h32v32H0z"/><path fill="#EDF0F4" d="M16.9 4v6.066h5.697v3.768H16.9v6.154c0 1.392.075 2.285.223 2.68.146.396.423.71.822.945.53.318 1.14.477 1.82.477 1.218 0 2.426-.393 3.628-1.183v3.783c-1.025.483-1.955.824-2.787 1.018-.83.194-1.73.292-2.697.292-1.098 0-2.067-.14-2.912-.416-.844-.275-1.562-.672-2.155-1.183-.597-.512-1.01-1.058-1.24-1.637-.23-.575-.346-1.414-.346-2.51v-8.42h-2.65V10.44c.94-.308 1.75-.744 2.423-1.317.673-.57 1.213-1.258 1.617-2.06.408-.802.687-1.823.84-3.06H16.9z"/></svg>